<svg id="Layer_1" data-name="Layer 1" xmlns="http://www.w3.org/2000/svg" viewBox="0 0 1334.24 562.12"><defs><style>.cls-1{fill:#4090ce;}.cls-2{fill:#87d1ef;}.cls-3{fill:#33b1e6;}.cls-4{fill:#32b0e5;}</style></defs><title>Shift</title><polygon class="cls-1" points="597.84 254.21 597.84 313.88 693 313.88 694 355.33 752.9 283.46 696.22 211.79 696.22 252.59 597.84 254.21"/><circle class="cls-2" cx="278.56" cy="283.56" r="278.56"/><circle class="cls-2" cx="1055.68" cy="278.56" r="278.56"/><path class="cls-1" d="M562,573.49a13.55,13.55,0,0,0-10.52-8c-5.18-.67-11.06,1.88-12.63,5.89a6.67,6.67,0,0,0-.42,2.74c.12,3.57-1.49,9.8-9,21.46l-21.15,26.63c-3.36,4.26-8.06,8.24-13.84,12.78-14.75,11.58-30,16.53-39,17.92l-38.89,8.54c-12.61,1-28.57.33-43.66-.27-8.81-.34-17.17-1-25-1.89a216,216,0,0,1-2.73-23.57c-1-16.73-1.53-32.65.28-45L353,551.36c1.87-5,4.06-10.14,6.63-15.46,7.2-14.94,15.46-28,24.61-37.35l31-19a35.92,35.92,0,0,1,5.68-3.16c3.43-1.62,4.88-1.84,6.94-2.84a21.36,21.36,0,0,0,8.21-7.26c.88-1.31,6.38-9.49,2.52-16.09-3-5.19-9.41-6-10.41-6.11-2.55-.31-4.75.1-9.47,1.69a89.7,89.7,0,0,0-15.15,6.31,181.52,181.52,0,0,0-48.29,40.08c-24.92,37.38-32.39,74.46-35,97.21a244.34,244.34,0,0,0,1.26,65.33C283,651.43,224,653,165.75,684.17a250.49,250.49,0,0,0-26.51,16.41l-25,22.73L91.26,748.13c-1.69,8.28,1.17,16,6.53,18.94a14.4,14.4,0,0,0,10.31,1.26,12.4,12.4,0,0,0,4-2.1L131.66,742l24.73-21.45a159,159,0,0,1,35.71-20.25,148.82,148.82,0,0,1,16.2-5.47l37-10a246.07,246.07,0,0,1,62-4.49c5.88.32,13.37.86,18.79,1.54,1.11,13.71.46,29.52-.28,46.29-.54,12.18-2.35,23.11-3.79,33.53l-9.6,37.52a187.71,187.71,0,0,1-18.73,39.56c-2.49,4-5,7.68-7.57,11.15l-20.68,25.92-5.47,5-15.15,10.52c-6.65,5-8,13.81-4.2,19.15,3.6,5.09,11.6,6.71,16,4.21a8.44,8.44,0,0,0,1-.65c33.94-28,45.12-42.06,45.12-42.06,21.84-27.41,31.18-54.22,36-68.39,8.76-25.83,11.09-46.75,12.42-59.33a302.92,302.92,0,0,0,.42-59.34,325.12,325.12,0,0,0,82.06-1c18.81-2.67,34.6-5.05,53.44-14.52,19.58-9.83,32.19-22.15,40.4-30.3a184.1,184.1,0,0,0,26.94-35.77,82.33,82.33,0,0,0,6.52-16.62C563.34,578.09,562.7,575.3,562,573.49Z" transform="translate(-53.62 -396.41)"/><path class="cls-3" d="M529.34,595.59l-21.15,26.63c-41.66-40.83-82.32-82.86-124-123.67l31-19C412.78,482.35,439,510.85,529.34,595.59Z" transform="translate(-53.62 -396.41)"/><path class="cls-1" d="M286.16,849.93l-20.68,25.92L131.66,742l24.73-21.45C199.38,763.85,243.16,806.65,286.16,849.93Z" transform="translate(-53.62 -396.41)"/><path class="cls-1" d="M156.39,720.58Z" transform="translate(-53.62 -396.41)"/><path class="cls-3" d="M322.06,761.7l-9.6,37.52L208.3,694.86l37-10Q283.7,723.26,322.06,761.7Z" transform="translate(-53.62 -396.41)"/><path class="cls-1" d="M455.39,652.92l-38.89,8.54c-22.51-22.86-48.64-47.89-71.15-70.75L353,551.36C387.05,584.81,421.31,619.46,455.39,652.92Z" transform="translate(-53.62 -396.41)"/><path class="cls-1" d="M1344.55,575.35a13.57,13.57,0,0,0-10.52-8c-5.18-.67-11.06,1.87-12.63,5.89A6.67,6.67,0,0,0,1321,576c.11,3.57-1.49,9.8-9,21.46l-21.15,26.62c-3.36,4.26-8.06,8.25-13.83,12.79-14.75,11.58-30,16.53-39,17.92l-38.89,8.54c-12.61,1-28.57.33-43.66-.27-8.81-.35-17.17-1-25-1.89a213.43,213.43,0,0,1-2.74-23.57c-1-16.73-1.53-32.65.29-45l7.6-39.34c1.87-5,4.06-10.14,6.63-15.47,7.2-14.93,15.47-28,24.62-37.34l31-19a35.92,35.92,0,0,1,5.68-3.16c3.42-1.62,4.88-1.85,6.94-2.84a21.23,21.23,0,0,0,8.2-7.26c.88-1.31,6.38-9.49,2.53-16.09-3-5.19-9.41-6-10.42-6.11-2.54-.31-4.74.09-9.46,1.69a89,89,0,0,0-15.15,6.31A181.31,181.31,0,0,0,1137.82,494c-24.92,37.38-32.4,74.46-35,97.21a243.5,243.5,0,0,0,1.26,65.33c-38.45-3.29-97.41-1.75-155.7,29.46a248.86,248.86,0,0,0-26.51,16.41l-25,22.73L873.86,750c-1.7,8.28,1.16,16,6.52,18.94a14.4,14.4,0,0,0,10.31,1.26,12.19,12.19,0,0,0,4-2.1l19.57-24.2L939,722.44a159.27,159.27,0,0,1,35.72-20.25,150.43,150.43,0,0,1,16.2-5.48l37-10a246,246,0,0,1,62-4.48c5.89.32,13.38.85,18.8,1.54,1.11,13.71.46,29.52-.28,46.29-.54,12.18-2.35,23.11-3.79,33.53l-9.61,37.52a186.84,186.84,0,0,1-18.72,39.55c-2.49,4-5,7.69-7.58,11.15l-20.67,25.93-5.47,5-15.15,10.52c-6.65,5-8,13.81-4.21,19.15,3.6,5.09,11.6,6.71,16,4.21a6.77,6.77,0,0,0,1-.65c33.94-28,45.13-42.07,45.13-42.07,21.84-27.41,31.18-54.21,36-68.38,8.76-25.83,11.09-46.75,12.42-59.33a303.7,303.7,0,0,0,.42-59.34,325.13,325.13,0,0,0,82.06-1c18.8-2.67,34.59-5.05,53.44-14.52,19.58-9.83,32.19-22.15,40.4-30.3A183.83,183.83,0,0,0,1337,605.23a81.94,81.94,0,0,0,6.52-16.62C1345.94,580,1345.3,577.16,1344.55,575.35Z" transform="translate(-53.62 -396.41)"/><path class="cls-1" d="M1311.93,597.45l-21.15,26.62c-41.66-40.82-82.32-82.85-124-123.66l31-19C1195.38,484.21,1221.58,512.71,1311.93,597.45Z" transform="translate(-53.62 -396.41)"/><path class="cls-3" d="M1068.75,851.78l-20.67,25.93L914.26,743.89,939,722.44C982,765.71,1025.76,808.51,1068.75,851.78Z" transform="translate(-53.62 -396.41)"/><path class="cls-1" d="M939,722.44Z" transform="translate(-53.62 -396.41)"/><path class="cls-1" d="M1104.66,763.56l-9.61,37.52L990.9,696.71l37-10Z" transform="translate(-53.62 -396.41)"/><path class="cls-4" d="M1238,654.78l-38.89,8.54c-22.51-22.86-48.64-47.89-71.15-70.76l7.6-39.34C1169.64,586.67,1203.9,621.32,1238,654.78Z" transform="translate(-53.62 -396.41)"/></svg>