<svg id="Layer_1" data-name="Layer 1" xmlns="http://www.w3.org/2000/svg" viewBox="0 0 1145.13 1145.35"><defs><style>.cls-1{fill:#4090ce;}.cls-2{fill:#87d0ee;}.cls-3{fill:#33b1e6;}.cls-4{fill:#87d1ef;}.cls-5{fill:#32b0e5;}</style></defs><title>Dna</title><path class="cls-1" d="M1290.92,461.36a32.85,32.85,0,0,0-25.53-19.4c-12.57-1.63-26.84,4.55-30.64,14.3a16,16,0,0,0-1,6.64c.27,8.66-3.62,23.78-22,52.08l-51.32,64.62c-8.16,10.34-19.57,20-33.58,31-35.8,28.12-72.9,40.13-94.55,43.49l-94.38,20.74c-30.61,2.45-69.34.79-106-.66-21.38-.84-41.67-2.46-60.77-4.59a520.51,520.51,0,0,1-6.64-57.2c-2.43-40.6-3.71-79.23.69-109.27l18.46-95.49c4.54-12,9.85-24.6,16.09-37.53,17.47-36.25,37.53-67.92,59.74-90.64l75.2-46.11c1.1-1.28,9-5.39,13.79-7.66,8.31-3.94,11.85-4.48,16.85-6.89a51.79,51.79,0,0,0,19.91-17.62c2.13-3.19,15.48-23,6.13-39.06-7.35-12.59-22.84-14.51-25.28-14.81-6.18-.76-11.52.22-23,4.09-8.95,3-24.16,8.15-36.77,15.32C833.24,208.26,789.22,264,789.22,264c-60.48,90.72-78.62,180.71-85,235.92a592.12,592.12,0,0,0,3.06,158.55c-93.32-8-236.4-4.25-377.87,71.49a603.89,603.89,0,0,0-64.34,39.83l-60.77,55.15q-27.83,30.12-55.66,60.25c-4.12,20.08,2.82,38.78,15.83,46a35,35,0,0,0,25,3.06,29.72,29.72,0,0,0,9.71-5.1q23.74-29.37,47.48-58.73l60-52.06a386.88,386.88,0,0,1,86.68-49.15,366.24,366.24,0,0,1,39.32-13.28l89.87-24.34A597.12,597.12,0,0,1,673,720.66c14.29.79,32.46,2.08,45.62,3.74,2.69,33.28,1.12,71.65-.68,112.34-1.31,29.56-5.71,56.09-9.2,81.37l-23.31,91.06a453.94,453.94,0,0,1-45.45,96c-6,9.62-12.2,18.64-18.38,27.06l-50.17,62.92-13.28,12.26-36.76,25.53c-16.14,12.21-19.38,33.5-10.21,46.47,8.74,12.36,28.15,16.29,38.8,10.21a16.28,16.28,0,0,0,2.31-1.58C634.66,1220,661.81,1186,661.81,1186c53-66.52,75.67-131.57,87.32-166,21.25-62.69,26.91-113.46,30.13-144a735.42,735.42,0,0,0,1-144,789.3,789.3,0,0,0,199.15-2.55c45.64-6.48,84-12.26,129.7-35.24,47.52-23.86,78.12-53.76,98-73.53,0,0,37-36.75,65.36-86.81,0,0,8.87-15.67,15.83-40.34C1294.3,472.51,1292.75,465.74,1290.92,461.36Z" transform="translate(-147.43 -147.08)"/><path class="cls-2" d="M1211.77,515l-51.32,64.62c-101.11-99.07-199.79-201.07-300.9-300.13l75.2-46.11C928.91,240.16,992.49,309.33,1211.77,515Z" transform="translate(-147.43 -147.08)"/><path class="cls-3" d="M621.6,1132.23l-50.17,62.92L246.66,870.38l60-52.06C411,923.34,517.26,1027.21,621.6,1132.23Z" transform="translate(-147.43 -147.08)"/><path class="cls-1" d="M306.66,818.32Z" transform="translate(-147.43 -147.08)"/><path class="cls-4" d="M708.74,918.11l-23.31,91.06Q559,882.53,432.66,755.89l89.87-24.34Z" transform="translate(-147.43 -147.08)"/><path class="cls-5" d="M1032.32,654.11l-94.38,20.74C883.3,619.36,819.89,558.62,765.26,503.13l18.46-95.49C866.45,488.83,949.6,572.91,1032.32,654.11Z" transform="translate(-147.43 -147.08)"/></svg>