<svg id="Layer_1" data-name="Layer 1" xmlns="http://www.w3.org/2000/svg" viewBox="0 0 1337.35 1343.15"><defs><style>.cls-1{fill:#86d2f0;}.cls-2{fill:#fff;}.cls-3{fill:#83d0f4;}.cls-4{fill:#4090ce;}.cls-5{fill:#33b2e7;}.cls-6,.cls-7{fill:none;}.cls-7{stroke:#7c1c1d;stroke-miterlimit:10;}.cls-8{fill:#059dd9;}</style></defs><title>Startup_SVG</title><path class="cls-1" d="M1384.38,715c0,206.12-93.57,390.38-240.56,512.63V1040.39a528.21,528.21,0,0,0,0-624.38V202.31C1290.81,324.54,1384.38,508.81,1384.38,715Z" transform="translate(-51.33 -48.42)"/><path class="cls-2" d="M1246,728.2a525.62,525.62,0,0,1-102.12,312.19V416A525.59,525.59,0,0,1,1246,728.2Z" transform="translate(-51.33 -48.42)"/><path class="cls-2" d="M1388.67,67.59v1324H1142.26V1228.1c147-122.25,240.56-306.52,240.56-512.64s-93.57-390.4-240.56-512.63V67.59Z" transform="translate(-51.33 -48.42)"/><path class="cls-3" d="M370.69,836.6h0c5,.18,10,.24,15,.18Z" transform="translate(-51.33 -48.42)"/><path class="cls-1" d="M1015.66,1164.38Q995,1178.51,973,1190.65a0,0,0,0,1,0,0,525.64,525.64,0,0,1-255.17,65.64c-237.55,0-438.44-156.87-504.79-372.61a523.68,523.68,0,0,1-15.39-64.07q4.64,34.15,11.87,67.08c.49,2.22,1,4.41,1.49,6.63.46,2.07.95,4.15,1.44,6.22.53,2.32,1.1,4.63,1.67,6.93s1.05,4.37,1.62,6.55q2.48,9.78,5.19,19.43c.52,1.93,1.07,3.84,1.62,5.75,1.49,5.17,3,10.27,4.6,15.37.44,1.46.89,2.93,1.36,4.39q2,6.32,4.08,12.56c1.39,4.17,2.81,8.3,4.27,12.42.27.78.53,1.53.82,2.28.57,1.65,1.17,3.29,1.76,4.94q8.46,23.18,18.2,45.39c.91,2.11,1.85,4.23,2.8,6.32q5.64,12.6,11.71,24.84c1,2,2,4.07,3.07,6.1s2,4.05,3.09,6.06q3.14,6,6.36,12c1.08,2,2.16,3.94,3.26,5.92s2.19,3.92,3.29,5.87q3.31,5.85,6.73,11.59c1.14,1.93,2.29,3.84,3.43,5.73q3.48,5.7,7,11.32c3.86,6.08,7.8,12.1,11.81,18,.91,1.34,1.85,2.69,2.76,4,1.26,1.83,2.52,3.64,3.8,5.44s2.5,3.52,3.74,5.25q3.81,5.31,7.73,10.49c1.3,1.73,2.6,3.45,3.92,5.16s2.64,3.44,4,5.12c1.55,2,3.09,3.93,4.64,5.86q5.64,7,11.4,13.76c2.85,3.33,5.73,6.65,8.64,9.9,1.4,1.58,2.83,3.15,4.25,4.71q6.4,7.05,13,13.83c1.46,1.5,2.93,3,4.41,4.49,3,3,5.93,5.94,8.92,8.8,1.24,1.2,2.5,2.4,3.76,3.6q4.92,4.66,9.9,9.15c2.85,2.56,5.71,5.1,8.62,7.6s5.79,5,8.72,7.4q15.44,12.75,31.51,24.13c4.59,3.25,9.25,6.4,13.92,9.49,1.57,1,3.13,2,4.72,3.07,4.72,3,9.45,5.94,14.25,8.78,1.58,1,3.19,1.89,4.8,2.81l6,3.43c2,1.12,4.05,2.24,6.08,3.34s4.09,2.17,6.12,3.23,4.11,2.11,6.16,3.15q8.12,4,16.34,7.78c1.79.82,3.58,1.61,5.39,2.4a1,1,0,0,0,.26.12c1.79.78,3.58,1.55,5.39,2.3s3.7,1.55,5.55,2.3q19.49,7.89,39.62,13.88,14.33,4.25,29,7.5,5.88,1.29,11.76,2.44,17.73,3.39,35.8,5.27c4,.4,8,.75,12.1,1,2,.15,4,.29,6.07.41,6.08.35,12.18.59,18.32.67,2.07,0,4.17,0,6.26,0A664.41,664.41,0,0,0,973,1330.87h0q22.85-9.45,44.78-20.57V1162.9C1017.1,1163.41,1016.37,1163.9,1015.66,1164.38ZM973,99h0a664.19,664.19,0,0,0-254-50.6h-1.12C475.7,49.08,272,258.07,209.51,543.4A861.88,861.88,0,0,0,189.86,715q-.08,3.19-.07,6.4c0-1.59.05-3.17.09-4.76a526.78,526.78,0,0,1,30-164.57c72.53-205,268.1-351.93,498-351.93A525.64,525.64,0,0,1,973,265.75a0,0,0,0,1,0,0q22,12.11,42.63,26.26c.71.49,1.44,1,2.15,1.49V119.6Q995.87,108.5,973,99Z" transform="translate(-51.33 -48.42)"/><path class="cls-3" d="M1143.82,1040.39v187.19a665.59,665.59,0,0,1-126,82.72V1162.9A530.8,530.8,0,0,0,1143.82,1040.39Z" transform="translate(-51.33 -48.42)"/><path class="cls-3" d="M1143.82,202.29V416a530.72,530.72,0,0,0-126-122.49V119.6a666.43,666.43,0,0,1,126,82.69Z" transform="translate(-51.33 -48.42)"/><path class="cls-4" d="M209.53,886.71c-55.92,48-86.63,96.06-86.65,129a667.81,667.81,0,0,1-.12-601.24c0,32.93,30.77,80.94,86.75,129A861.78,861.78,0,0,0,189.86,715q-.06,3.21-.06,6.4c0,2.28,0,4.56,0,6.83a529.86,529.86,0,0,0,7.9,91.44Q202.3,853.77,209.53,886.71Z" transform="translate(-51.33 -48.42)"/><path class="cls-5" d="M122.76,414.44v0c109.87-217.14,335.09-366,595.08-366C475.7,49.08,272,258.06,209.51,543.4,153.53,495.38,122.78,447.37,122.76,414.44Z" transform="translate(-51.33 -48.42)"/><path class="cls-5" d="M711.58,1381.44c-257.24-2.36-479.66-150.47-588.7-365.73v0c0-32.91,30.73-80.94,86.65-129C271.49,1169.91,472.29,1377.86,711.58,1381.44Z" transform="translate(-51.33 -48.42)"/><path class="cls-6" d="M197.66,819.63a876.33,876.33,0,0,1-7.78-103c0-.55,0-1.1,0-1.65q-.09-6.62-.1-13.25" transform="translate(-51.33 -48.42)"/><line class="cls-7" x1="71.55" y1="967.28" x2="71.55" y2="967.26"/><path class="cls-7" d="M719,715" transform="translate(-51.33 -48.42)"/><path class="cls-7" d="M122.89,1015.7" transform="translate(-51.33 -48.42)"/><path class="cls-7" d="M102.56,914.06" transform="translate(-51.33 -48.42)"/><line class="cls-7" x1="71.43" y1="366.02" x2="71.43" y2="366"/><rect class="cls-2" x="866.51" y="0.61" width="225.99" height="1323.97"/><path class="cls-3" d="M996.28,677c2.38-5.63,4.92-11,7.55-16.22l-6.49,31.16Z" transform="translate(-51.33 -48.42)"/><path class="cls-5" d="M1087.15,592.25a61.39,61.39,0,0,0-20.72,3.64l17.34-243.64Q1085.45,472.39,1087.15,592.25Z" transform="translate(-51.33 -48.42)"/><path class="cls-4" d="M974.45,260.69q-.63,45.82-1.28,91.56l-6.54-91.8Z" transform="translate(-51.33 -48.42)"/><path class="cls-4" d="M991.35,241.38c-8.64.77-17.26,1.57-25.9,2.34L959.78,164C967.18,197.66,993.05,185,991.35,241.38Z" transform="translate(-51.33 -48.42)"/><path class="cls-3" d="M1097.17,164l1.87-26.2C1099.37,149,1098.63,157.39,1097.17,164Z" transform="translate(-51.33 -48.42)"/><path class="cls-4" d="M1129.14,247.09c-.52,4.09-1.07,8.15-1.62,12.22l-37.2,1.14,1.18-16.73Z" transform="translate(-51.33 -48.42)"/><path class="cls-1" d="M996.28,677c2.38-5.63,4.92-11,7.55-16.22l-6.49,31.16,5.31,74.29,60.53-124.6-15,211L1046.35,878v0l-9.86,138.43-.34,4.85q-2,76.14-4.07,152.28-1.42,54-2.86,108c0,.06,0,.12,0,.18-.11,3.92-.21,7.82-.31,11.75a10.94,10.94,0,0,1-.41-2.26c-.24-1.91-.48-4.86-.71-8.74a.9.9,0,0,0,0-.22c-1.12-19.54-2.19-61.8-2.88-108.69-.8-53.69-1.1-113.45-.47-152.11-1.32-1.67-2.62-3.36-4-5-.83-1.08-1.68-2.14-2.52-3.22.45-4.08-.24-9.08.21-13.15-2-1.6-2.85-2.32-4.82-3.92.2-9.13.41-18.28.61-27.4-1.48-1.79-3-3.56-4.47-5.33q.27-35.49.57-71c-2.32-1.93-4.31-4.47-6.63-6.4,3.25-1,4-3.38,7.28-4.42-.06-1.24-.08-2.44-.08-3.63v0c0-8.47,1.26-15.83.87-24.67-.89-.23-1.79-.45-2.68-.69-14.17-3.62-28.3-8.2-42.47-11.69.06-4.66.12-9.29.21-13.93C968.05,769.63,979,717.47,996.28,677Z" transform="translate(-51.33 -48.42)"/><path class="cls-5" d="M1083.77,352.25l-17.34,243.64c-24.06,8.52-45.67,31.67-62.6,64.85l78.95-379.23Q1083.29,316.91,1083.77,352.25Z" transform="translate(-51.33 -48.42)"/><path class="cls-5" d="M1090.32,260.45l-6.55,91.8q-.48-35.34-1-70.74l4.37-21Z" transform="translate(-51.33 -48.42)"/><path class="cls-4" d="M985.57,526.39c-9.39,69.87-15.75,150.08-18.15,236.33,1.93-137,3.84-273.51,5.75-410.47Z" transform="translate(-51.33 -48.42)"/><path class="cls-4" d="M1097.17,164c-7.4,33.65-33.28,21-31.57,77.37,8.64.77,17.26,1.57,25.9,2.34l-1.18,16.73-3.17.1c-.57,0-1.12,0-1.69.06-1,0-2,0-3,.08V261c-40.71,7.38-76.22,111.23-96.92,265.41l-12.4-174.14q.65-45.74,1.28-91.56l-7.82-.24-1.18-16.73c8.64-.77,17.26-1.57,25.9-2.34,1.7-56.39-24.17-43.72-31.57-77.37l-1.87-26.2H1099Z" transform="translate(-51.33 -48.42)"/><path class="cls-3" d="M959.78,164c-1.47-6.62-2.2-15.06-1.87-26.2Z" transform="translate(-51.33 -48.42)"/><path class="cls-4" d="M966.63,260.45l-37.2-1.14c-.55-4.07-1.1-8.13-1.63-12.22l37.65-3.37Z" transform="translate(-51.33 -48.42)"/><path class="cls-3" d="M1082.49,260.69c1,0,2-.06,3-.08a23.39,23.39,0,0,0-3,.37Z" transform="translate(-51.33 -48.42)"/><path class="cls-4" d="M1097.17,164l-5.67,79.71c-8.64-.77-17.26-1.57-25.9-2.34C1063.89,185,1089.77,197.66,1097.17,164Z" transform="translate(-51.33 -48.42)"/><line class="cls-6" x1="870.54" y1="1041.3" x2="870.54" y2="1041.28"/><path class="cls-8" d="M1087.15,592.25v0l-24,49.32,3.25-45.7A61.39,61.39,0,0,1,1087.15,592.25Z" transform="translate(-51.33 -48.42)"/><path class="cls-5" d="M996.28,677c-17.27,40.51-28.23,92.67-29.75,150q.42-32.16.89-64.29c2.4-86.25,8.76-166.46,18.15-236.33Z" transform="translate(-51.33 -48.42)"/><path class="cls-5" d="M1082.78,281.51l-78.95,379.23c-2.63,5.18-5.17,10.59-7.55,16.22L985.57,526.39c20.7-154.18,56.21-258,96.92-265.41C1082.6,267.83,1082.7,274.66,1082.78,281.51Z" transform="translate(-51.33 -48.42)"/><path class="cls-1" d="M1046.27,881.67c3.25,1,4,3.4,7.28,4.42-2.32,1.93-4.31,4.47-6.61,6.4q.27,35.46.55,71c-1.5,1.77-3,3.54-4.47,5.33.2,9.12.4,18.27.63,27.4-2,1.6-2.85,2.32-4.84,3.92.45,4.07-.22,9.07.2,13.15-.83,1.08-1.68,2.14-2.52,3.22-1.32,1.66-2.62,3.35-3.94,5,.63,38.66.32,98.42-.47,152.11-.69,46.32-1.73,88.14-2.86,108,0,.06,0,.12,0,.18-.23,4.25-.47,7.46-.72,9.49a11.45,11.45,0,0,1-.42,2.26c-.1-3.66-.21-7.34-.29-11a.9.9,0,0,0,0-.22q-1.43-54.35-2.88-108.69-2.05-76.14-4.07-152.28l-.35-4.85L1010.6,878v0l-1.81-25.36-6.14-86.44,60.53-124.6,3.25-45.7a61.39,61.39,0,0,1,20.72-3.64v0q1.74,124.2,3.47,248.67c-14.14,3.49-28.29,8.07-42.46,11.69-.89.24-1.79.46-2.68.69-.39,8.84.87,16.2.87,24.67v0C1046.35,879.23,1046.33,880.43,1046.27,881.67Z" transform="translate(-51.33 -48.42)"/><path class="cls-1" d="M1066.43,595.89l-3.25,45.7-60.53,124.6-5.31-74.29,6.49-31.16C1020.76,627.56,1042.37,604.41,1066.43,595.89Z" transform="translate(-51.33 -48.42)"/><path class="cls-1" d="M997.34,691.9l5.31,74.29-36.33,74.75c0-4.68.06-9.31.21-13.93,1.52-57.38,12.48-109.54,29.75-150,2.38-5.63,4.92-11,7.55-16.22Z" transform="translate(-51.33 -48.42)"/><path class="cls-1" d="M996.28,677c2.38-5.63,4.92-11,7.55-16.22l-6.49,31.16-31,149c0-26.53.37-52.65,1.1-78.22q-.45,32.1-.89,64.29C968.05,769.63,979,717.47,996.28,677Z" transform="translate(-51.33 -48.42)"/><path class="cls-5" d="M1087.15,260.55l-4.37,21c-.08-6.85-.18-13.68-.29-20.53a23.39,23.39,0,0,1,3-.37C1086,260.57,1086.58,260.55,1087.15,260.55Z" transform="translate(-51.33 -48.42)"/></svg>